<svg id="Layer_1" xmlns="http://www.w3.org/2000/svg" width="348" height="138" viewBox="0 0 347.6 137.6"><style>.st0{fill:none}.st1{fill:#45b3f1}</style><path class="st0" d="M53.2 101.1v-12H25.7c7.3 6.9 16.9 11.3 27.5 12zM36.7 74.9h16.5v8.9H36.7zM36.7 29.1h39.1v9H36.7zM81.5 29.1v9H97c-1.5-3.2-3.3-6.2-5.4-9H81.5zM329.8 47.7c-.3-2.4-2.1-5-6.5-5-5.2 0-6.2 3.8-6.4 4.9l-.1.7h13.1l-.1-.6zM290.5 97.6c-.3-2.4-2.1-5-6.5-5-5.2 0-6.2 3.8-6.4 4.9l-.1.7h13.1l-.1-.6zM224.5 58.5c4.1 0 6.9-3.1 6.9-7.6 0-4.4-2.8-7.5-6.9-7.5-2.2 0-4.7 1.2-5.9 2.8l-.1.2v9.1l.1.2c1.1 1.6 3.6 2.8 5.9 2.8zM255.7 96.3l-.1-.2c-1.2-1.6-3.7-2.8-6-2.8-4 0-6.8 3.1-6.8 7.5s2.8 7.5 6.8 7.5c2.2 0 4.7-1.2 6-2.8l.1-.2v-9zM197.5 47.7c-.3-2.4-2.1-5-6.5-5-5.2 0-6.2 3.8-6.4 4.9l-.1.7h13.1l-.1-.6zM143.5 105.4l.1.2c1.2 1.6 3.7 2.8 5.9 2.8 4.1 0 6.9-3.1 6.9-7.5s-2.8-7.5-6.9-7.5c-2.2 0-4.7 1.2-5.9 2.8l-.1.2v9zM31 38.1v-9H20.9c-2.1 2.8-4 5.8-5.4 9H31zM20.8 83.8H31v-8.9H15.5c1.4 3.2 3.2 6.2 5.3 8.9zM53.4 23.8V11.9c-10.6.7-20.2 5-27.6 11.9h27.6zM59.1 23.8h27.6c-7.4-6.8-17-11.2-27.6-11.9v11.9z"/><path class="st1" d="M145.5 64.6l5.7-19.1 5.8 19.1h8.9l8-27.2h-8l-5 19-6.1-19h-7.1l-6.1 18.9-5-18.9h-8l8 27.2zM191.4 65.3c4.3 0 8.5-1.2 11.1-3.3l-3.3-4.9c-1.8 1.3-4.8 2.1-6.8 2.1-4.7 0-7.1-2.6-7.7-5.1l-.2-.8h20.4v-1.5c0-9.1-5.6-15.2-13.9-15.2-8.2 0-14.5 6.1-14.5 14.3 0 8.6 6 14.4 14.9 14.4zm-6.9-17.6c.2-1.2 1.2-4.9 6.4-4.9 4.4 0 6.2 2.6 6.5 5l.1.7h-13.1l.1-.8zM218.4 60.2l1.1 1.2c2.2 2.5 4.9 3.8 8 3.8 7.2 0 11.9-5.6 11.9-14.3 0-8.5-4.8-14.3-11.9-14.3-2.2 0-5.4.7-7.9 3.8l-1.1 1.4V26.5h-7.8v38h7.8v-4.3zm0-13.8l.1-.2c1.2-1.6 3.7-2.8 5.9-2.8 4.1 0 6.9 3.1 6.9 7.5s-2.8 7.6-6.9 7.6c-2.2 0-4.7-1.2-5.9-2.8l-.1-.2v-9.1zM256.5 47.5c-2.9-.5-4.9-.8-4.9-2.4 0-1.5 1.7-2.6 4.1-2.6 3.3 0 6.4 1.3 8.2 2.8l2.8-5.3c-3.2-2.2-7-3.3-11.1-3.3-7.9 0-11.6 4.5-11.6 8.7 0 6.9 6.2 7.9 11.2 8.8 3 .5 5.3.9 5.3 2.7 0 1.2-.8 2.6-4.4 2.6-3.3 0-7.5-1.7-9.8-3.5l-3.1 5.4c2.9 2.4 7.8 3.9 12.6 3.9 7.5 0 12.3-3.4 12.3-8.7-.1-7.2-6.8-8.3-11.6-9.1zM273.9 37.4h7.8v27.2h-7.8zM277.8 33.6c2.5 0 4.6-2.1 4.6-4.6 0-2.5-2.1-4.6-4.6-4.6-2.6 0-4.6 2-4.6 4.6 0 2.5 2.1 4.6 4.6 4.6zM291.4 57.5c0 5.1 2.8 7.7 8.3 7.7 2.6 0 4.8-.5 6-1.5l-1.5-5.7c-.5.2-1.2.4-1.9.4-1.8 0-3.1-1.4-3.1-3.5V44h5.8v-6.6h-5.8v-7.8h-7.8v7.8h-4.7V44h4.7v13.5zM323.8 65.3c4.4 0 8.5-1.2 11.1-3.3l-3.3-4.9c-1.8 1.3-4.8 2.1-6.8 2.1-4.7 0-7.1-2.6-7.7-5.1l-.2-.8h20.4v-1.5c0-9.1-5.6-15.2-13.9-15.2-8.2 0-14.4 6.1-14.4 14.3-.1 8.6 5.9 14.4 14.8 14.4zm-6.9-17.6c.2-1.2 1.2-4.9 6.4-4.9 4.4 0 6.2 2.6 6.5 5l.1.7h-13.1l.1-.8zM135.6 76.4v38h7.8v-4.3l1.1 1.2c2.2 2.5 4.9 3.8 8 3.8 7.2 0 11.9-5.6 11.9-14.3 0-8.5-4.8-14.3-11.9-14.3-2.2 0-5.4.7-7.9 3.8l-1.1 1.4V76.4h-7.9zm8 19.8c1.2-1.6 3.7-2.8 5.9-2.8 4.1 0 6.9 3.1 6.9 7.5s-2.8 7.5-6.9 7.5c-2.2 0-4.7-1.2-5.9-2.8l-.1-.2v-9.1l.1-.1zM170.4 87.3v19.6c0 5.3 3.1 8.3 8.7 8.3 5.2 0 8.1-2.5 9.4-3.9l1.1-1.2v4.4h7.8V87.3h-7.8v18l-.1.2c-1.1 1.4-3 3-5.9 3-3.6 0-5.3-1.7-5.3-5.3V87.3h-7.9zM209.2 83.5c2.6 0 4.6-2.1 4.6-4.6 0-2.5-2.1-4.6-4.6-4.6-2.6 0-4.6 2-4.6 4.6 0 2.5 2.1 4.6 4.6 4.6zM205.3 87.3h7.8v27.2h-7.8zM220.9 76.4h7.8v38h-7.8zM263.5 114.5v-38h-7.8v15.3l-1.1-1.4c-2.5-3.2-5.7-3.8-7.9-3.8-7.1 0-11.9 5.7-11.9 14.3 0 8.7 4.7 14.3 11.9 14.3 3.1 0 5.8-1.3 8-3.8l1.1-1.2v4.3h7.7zm-7.9-8.9c-1.3 1.6-3.8 2.8-6 2.8-4 0-6.8-3.1-6.8-7.5s2.8-7.5 6.8-7.5c2.2 0 4.7 1.2 6 2.8l.1.2v9.1l-.1.1zM284.4 115.2c4.4 0 8.5-1.2 11.1-3.3l-3.3-4.9c-1.8 1.3-4.8 2.1-6.8 2.1-4.7 0-7.1-2.6-7.7-5.1l-.2-.8h20.4v-1.5c0-9.1-5.6-15.2-13.9-15.2-8.2 0-14.5 6.1-14.5 14.3 0 8.6 6 14.4 14.9 14.4zm-6.8-17.7c.2-1.2 1.2-4.9 6.4-4.9 4.4 0 6.2 2.6 6.5 5l.1.7h-13.1l.1-.8zM303.6 87.3v27.2h7.8V96.7l.1-.2c1.3-1.8 4.7-2.8 7.1-2.8.7 0 1.2 0 1.6.1v-7.3c-3.2.2-6.3 2.1-7.8 4l-1.1 1.3v-4.6h-7.7zM336 92.4c3.3 0 6.4 1.3 8.2 2.8l2.9-5.3c-3.2-2.2-7-3.3-11.1-3.3-8 0-11.6 4.5-11.6 8.7 0 6.9 6.2 7.9 11.2 8.8 3 .5 5.3.9 5.3 2.7 0 1.2-.8 2.6-4.4 2.6-3.3 0-7.5-1.7-9.8-3.5l-3.1 5.4c2.9 2.4 7.8 3.9 12.6 3.9 7.5 0 12.3-3.4 12.3-8.7 0-7.2-6.7-8.3-11.5-9.1-2.9-.5-4.9-.8-4.9-2.4-.3-1.6 1.4-2.6 3.9-2.6zM25.7 89.2h27.5v-5.4H36.7v-8.9H108.6c2-5.8 3.2-12 3.2-18.4C111.7 25.9 86.8 1 56.2 1S.7 25.9.7 56.5c0 29.6 23.3 53.8 52.5 55.4v-10.8C42.6 100.4 33 96 25.7 89.2zm50-60.1v9h-39v-9h39zm-50 14.6h7.4L37 58.4l4.4-14.8h5.1l4.4 14.8 3.8-14.8h7.5l-7.3 25.7h-7L44 55.6l-4 13.7h-7l-7.3-25.6zm38.5 0h14.5c5.1 0 7.5 3.3 7.5 6.5s-2 5.3-4.4 5.9c2.7.4 4.9 3 4.9 6.3 0 3.7-2.5 7-7.5 7h-15V43.7zm17.3-5.6v-9h10.1c2.1 2.8 4 5.8 5.4 9H81.5zM59.1 23.8V11.9c10.6.7 20.2 5 27.6 11.9H59.1zm-5.7 0H25.8c7.3-6.8 16.9-11.2 27.6-11.9v11.9zM31 29.1v9H15.5c1.5-3.2 3.3-6.2 5.4-9H31zm0 54.7H20.8c-2.1-2.7-3.9-5.7-5.3-8.9H31v8.9z"/><path class="st1" d="M79.5 51.5c0-1.2-.9-2-2.3-2h-6.4v4h6.4c1.4 0 2.3-.8 2.3-2zM70.8 63.6h6.7c1.6 0 2.5-.8 2.5-2.2 0-1.3-.9-2.2-2.5-2.2h-6.7v4.4zM77.5 121.3v5.5h8.7v-5.5zM63.8 116.3h-5.5v10.5h10.5v-5.5h-5zM58.3 98.9h5.5v8.7h-5.5zM58.3 90.2h5.5v-5h5v-5.5H58.3zM77.5 79.7h8.7v5.5h-8.7zM105.4 79.7H94.9v5.5h5v5h5.5zM99.9 107.6h5.5v-8.7h-5.5zM94.9 124.5v12.6l4.5-4.1 2.4 5.6 4.6-2.1-2.5-5.5 6-.6-6.3-5.9-8.7-8.2z"/></svg>